<?xml version="1.0" encoding="UTF-8"?>
<!-- Generated by specplot v0.1.0 - https://github.com/themerius/specplot -->
<svg xmlns="http://www.w3.org/2000/svg" xmlns:xlink="http://www.w3.org/1999/xlink"
     width="1032.0" height="774.0" viewBox="0 0 1032.0 774.0">
<defs>
</defs>
<rect x="0" y="0" width="1032.0" height="774.0" fill="#ffffff" />
<rect x="40.0" y="40.0" width="952.0" height="96.0" fill="#f1f5f9" stroke="#94a3b8" stroke-width="1.5" rx="6" ry="6" />
<rect x="40.0" y="40.0" width="952.0" height="40" fill="#e2e8f0" stroke="none" rx="6" ry="6" />
<rect x="40.0" y="74.0" width="952.0" height="6" fill="#e2e8f0" stroke="none" />
<path d="M40.0,80.0 L992.0,80.0" stroke="#94a3b8" stroke-width="1" />
<g transform="translate(52.0, 70.0) scale(0.020833333333333332)">
<path d="M240-320h320v-80H240v80Zm0-160h480v-80H240v80Zm-80 320q-33 0-56.5-23.5T80-240v-480q0-33 23.5-56.5T160-800h240l80 80h320q33 0 56.5 23.5T880-640v400q0 33-23.5 56.5T800-160H160Zm0-80h640v-400H447l-80-80H160v480Zm0 0v-480 480Z" fill="#475569" />
</g>
<text x="80.0" y="60.0" font-size="14" fill="#1e293b" font-family="Inter, -apple-system, BlinkMacSystemFont, sans-serif" font-weight="500" dominant-baseline="middle">Data Sources</text>
<rect x="56.0" y="84.0" width="200" height="40" fill="#f8fafc" stroke="#cbd5e1" stroke-width="1.5" rx="6" ry="6" />
<rect x="56.0" y="84.0" width="200" height="40" fill="#e2e8f0" stroke="none" rx="6" ry="6" />
<rect x="56.0" y="118.0" width="200" height="6" fill="#e2e8f0" stroke="none" />
<path d="M56.0,124.0 L256.0,124.0" stroke="#cbd5e1" stroke-width="1" />
<g transform="translate(68.0, 114.0) scale(0.020833333333333332)">
<path d="m480-400-80-80 80-80 80 80-80 80Zm-85-235L295-735l185-185 185 185-100 100-85-85-85 85ZM225-295 40-480l185-185 100 100-85 85 85 85-100 100Zm510 0L635-395l85-85-85-85 100-100 185 185-185 185ZM480-40 295-225l100-100 85 85 85-85 100 100L480-40Z" fill="#475569" />
</g>
<text x="96.0" y="104.0" font-size="14" fill="#1e293b" font-family="Inter, -apple-system, BlinkMacSystemFont, sans-serif" font-weight="500" dominant-baseline="middle">APIs</text>
<rect x="416.0" y="84.0" width="200" height="40" fill="#f8fafc" stroke="#cbd5e1" stroke-width="1.5" rx="6" ry="6" />
<rect x="416.0" y="84.0" width="200" height="40" fill="#e2e8f0" stroke="none" rx="6" ry="6" />
<rect x="416.0" y="118.0" width="200" height="6" fill="#e2e8f0" stroke="none" />
<path d="M416.0,124.0 L616.0,124.0" stroke="#cbd5e1" stroke-width="1" />
<g transform="translate(428.0, 114.0) scale(0.020833333333333332)">
<path d="M480-120q-151 0-255.5-46.5T120-280v-400q0-66 105.5-113T480-840q149 0 254.5 47T840-680v400q0 67-104.5 113.5T480-120Zm0-479q89 0 179-25.5T760-679q-11-29-100.5-55T480-760q-91 0-178.5 25.5T200-679q14 30 101.5 55T480-599Zm0 199q42 0 81-4t74.5-11.5q35.5-7.5 67-18.5t57.5-25v-120q-26 14-57.5 25t-67 18.5Q600-528 561-524t-81 4q-42 0-82-4t-75.5-11.5Q287-543 256-554t-56-25v120q25 14 56 25t66.5 18.5Q358-408 398-404t82 4Zm0 200q46 0 93.5-7t87.5-18.5q40-11.5 67-26t32-29.5v-98q-26 14-57.5 25t-67 18.5Q600-328 561-324t-81 4q-42 0-82-4t-75.5-11.5Q287-343 256-354t-56-25v99q5 15 31.5 29t66.5 25.5q40 11.5 88 18.5t94 7Z" fill="#475569" />
</g>
<text x="456.0" y="104.0" font-size="14" fill="#1e293b" font-family="Inter, -apple-system, BlinkMacSystemFont, sans-serif" font-weight="500" dominant-baseline="middle">Databases</text>
<rect x="776.0" y="84.0" width="200" height="40" fill="#f8fafc" stroke="#cbd5e1" stroke-width="1.5" rx="6" ry="6" />
<rect x="776.0" y="84.0" width="200" height="40" fill="#e2e8f0" stroke="none" rx="6" ry="6" />
<rect x="776.0" y="118.0" width="200" height="6" fill="#e2e8f0" stroke="none" />
<path d="M776.0,124.0 L976.0,124.0" stroke="#cbd5e1" stroke-width="1" />
<g transform="translate(788.0, 114.0) scale(0.020833333333333332)">
<path d="M160-160q-33 0-56.5-23.5T80-240v-480q0-33 23.5-56.5T160-800h240l80 80h320q33 0 56.5 23.5T880-640v400q0 33-23.5 56.5T800-160H160Zm0-80h640v-400H447l-80-80H160v480Zm0 0v-480 480Z" fill="#475569" />
</g>
<text x="816.0" y="104.0" font-size="14" fill="#1e293b" font-family="Inter, -apple-system, BlinkMacSystemFont, sans-serif" font-weight="500" dominant-baseline="middle">Files</text>
<rect x="236.0" y="196.0" width="200" height="78" fill="#f8fafc" stroke="#cbd5e1" stroke-width="1.5" rx="6" ry="6" />
<rect x="236.0" y="196.0" width="200" height="40" fill="#e2e8f0" stroke="none" rx="6" ry="6" />
<rect x="236.0" y="230.0" width="200" height="6" fill="#e2e8f0" stroke="none" />
<path d="M236.0,236.0 L436.0,236.0" stroke="#cbd5e1" stroke-width="1" />
<g transform="translate(248.0, 226.0) scale(0.020833333333333332)">
<path d="M160-160q-33 0-56.5-23.5T80-240v-120h80v120h640v-480H160v120H80v-120q0-33 23.5-56.5T160-800h640q33 0 56.5 23.5T880-720v480q0 33-23.5 56.5T800-160H160Zm300-140-56-58 83-82H80v-80h407l-83-82 56-58 180 180-180 180Z" fill="#475569" />
</g>
<text x="276.0" y="216.0" font-size="14" fill="#1e293b" font-family="Inter, -apple-system, BlinkMacSystemFont, sans-serif" font-weight="500" dominant-baseline="middle">Ingestion</text>
<text x="248.0" y="255.0" font-size="11" fill="#64748b" font-family="Inter, -apple-system, BlinkMacSystemFont, sans-serif" dominant-baseline="middle">Kafka / Kinesis</text>
<rect x="596.0" y="196.0" width="200" height="144" fill="#f8fafc" stroke="#cbd5e1" stroke-width="1.5" rx="6" ry="6" />
<rect x="596.0" y="196.0" width="200" height="40" fill="#e2e8f0" stroke="none" rx="6" ry="6" />
<rect x="596.0" y="230.0" width="200" height="6" fill="#e2e8f0" stroke="none" />
<path d="M596.0,236.0 L796.0,236.0" stroke="#cbd5e1" stroke-width="1" />
<g transform="translate(608.0, 226.0) scale(0.020833333333333332)">
<path d="M360-360v-240h240v240H360Zm80-80h80v-80h-80v80Zm-80 320v-80h-80q-33 0-56.5-23.5T200-280v-80h-80v-80h80v-80h-80v-80h80v-80q0-33 23.5-56.5T280-760h80v-80h80v80h80v-80h80v80h80q33 0 56.5 23.5T760-680v80h80v80h-80v80h80v80h-80v80q0 33-23.5 56.5T680-200h-80v80h-80v-80h-80v80h-80Zm320-160v-400H280v400h400ZM480-480Z" fill="#475569" />
</g>
<text x="636.0" y="216.0" font-size="14" fill="#1e293b" font-family="Inter, -apple-system, BlinkMacSystemFont, sans-serif" font-weight="500" dominant-baseline="middle">Processing</text>
<text x="608.0" y="255.0" font-size="11" fill="#64748b" font-family="Inter, -apple-system, BlinkMacSystemFont, sans-serif" dominant-baseline="middle">Spark / Flink</text>
<path d="M596.0,274.0 L796.0,274.0" stroke="#cbd5e1" stroke-width="0.5" stroke-dasharray="3,2" />
<text x="608.0" y="285.0" font-size="11" fill="#64748b" font-family="JetBrains Mono, Consolas, monospace" dominant-baseline="middle">• Validation</text>
<text x="608.0" y="307.0" font-size="11" fill="#64748b" font-family="JetBrains Mono, Consolas, monospace" dominant-baseline="middle">• Feature Engineering</text>
<text x="608.0" y="329.0" font-size="11" fill="#64748b" font-family="JetBrains Mono, Consolas, monospace" dominant-baseline="middle">• Aggregations</text>
<rect x="416.0" y="400.0" width="200" height="78" fill="#f8fafc" stroke="#cbd5e1" stroke-width="1.5" rx="6" ry="6" />
<rect x="416.0" y="400.0" width="200" height="40" fill="#e2e8f0" stroke="none" rx="6" ry="6" />
<rect x="416.0" y="434.0" width="200" height="6" fill="#e2e8f0" stroke="none" />
<path d="M416.0,440.0 L616.0,440.0" stroke="#cbd5e1" stroke-width="1" />
<g transform="translate(428.0, 430.0) scale(0.020833333333333332)">
<path d="M80-146v-78q29 0 49.5-9t41.5-19.5q21-10.5 46.5-19T280-280q38 0 62.5 8.5t45.5 19q21 10.5 42 19.5t50 9q29 0 50-9t42-19.5q21-10.5 46-19t62-8.5q38 0 63 8.5t46 19q21 10.5 42 19.5t49 9v78q-38 0-63.5-9T770-174.5q-21-10.5-41-19t-49-8.5q-28 0-48.5 8.5t-41 19Q570-164 544.5-155t-64.5 9q-39 0-64.5-9t-46-19.5Q349-185 329-193.5t-49-8.5q-28 0-48.5 8.5t-41.5 19Q169-164 143.5-155T80-146Zm0-178v-78q29 0 49.5-9t41.5-19.5q21-10.5 46.5-19T280-458q38 0 62.5 8.5t45.5 19q21 10.5 42 19.5t50 9q29 0 50-9t42-19.5q21-10.5 46-19t62-8.5q38 0 63 8.5t46 19q21 10.5 42 19.5t49 9v78q-38 0-63.5-9T770-352.5q-21-10.5-41-19t-49-8.5q-29 0-49.5 8.5t-41 19Q569-342 544-333t-64 9q-39 0-64.5-9t-46-19.5Q349-363 329-371.5t-49-8.5q-28 0-48.5 8.5t-41.5 19Q169-342 143.5-333T80-324Zm0-178v-78q29 0 49.5-9t41.5-19.5q21-10.5 46.5-19T280-636q38 0 62.5 8.5t45.5 19q21 10.5 42 19.5t50 9q29 0 50-9t42-19.5q21-10.5 46-19t62-8.5q38 0 63 8.5t46 19q21 10.5 42 19.5t49 9v78q-38 0-63.5-9T770-530.5q-21-10.5-41-19t-49-8.5q-28 0-48.5 8.5t-41 19Q570-520 544.5-511t-64.5 9q-39 0-64.5-9t-46-19.5Q349-541 329-549.5t-49-8.5q-28 0-48.5 8.5t-41.5 19Q169-520 143.5-511T80-502Zm0-178v-78q29 0 49.5-9t41.5-19.5q21-10.5 46.5-19T280-814q38 0 62.5 8.5t45.5 19q21 10.5 42 19.5t50 9q29 0 50-9t42-19.5q21-10.5 46-19t62-8.5q38 0 63 8.5t46 19q21 10.5 42 19.5t49 9v78q-38 0-63.5-9T770-708.5q-21-10.5-41-19t-49-8.5q-28 0-48.5 8.5t-41 19Q570-698 544.5-689t-64.5 9q-39 0-64.5-9t-46-19.5Q349-719 329-727.5t-49-8.5q-28 0-48.5 8.5t-41.5 19Q169-698 143.5-689T80-680Z" fill="#475569" />
</g>
<text x="456.0" y="420.0" font-size="14" fill="#1e293b" font-family="Inter, -apple-system, BlinkMacSystemFont, sans-serif" font-weight="500" dominant-baseline="middle">Data Lake</text>
<text x="428.0" y="459.0" font-size="11" fill="#64748b" font-family="Inter, -apple-system, BlinkMacSystemFont, sans-serif" dominant-baseline="middle">S3 / Delta Lake</text>
<rect x="204.0" y="538.0" width="232.0" height="196.0" fill="#f1f5f9" stroke="#94a3b8" stroke-width="1.5" rx="6" ry="6" />
<rect x="204.0" y="538.0" width="232.0" height="40" fill="#e2e8f0" stroke="none" rx="6" ry="6" />
<rect x="204.0" y="572.0" width="232.0" height="6" fill="#e2e8f0" stroke="none" />
<path d="M204.0,578.0 L436.0,578.0" stroke="#94a3b8" stroke-width="1" />
<g transform="translate(216.0, 568.0) scale(0.020833333333333332)">
<path d="M240-80v-172q-57-52-88.5-121.5T120-520q0-150 105-255t255-105q125 0 221.5 73.5T827-615l52 205q5 19-7 34.5T840-360h-80v120q0 33-23.5 56.5T680-160h-80v80h-80v-160h160v-200h108l-38-155q-23-91-98-148t-172-57q-116 0-198 81t-82 197q0 60 24.5 114t69.5 96l26 24v208h-80Zm254-360Zm-54 80h80l6-50q8-3 14.5-7t11.5-9l46 20 40-68-40-30q2-8 2-16t-2-16l40-30-40-68-46 20q-5-5-11.5-9t-14.5-7l-6-50h-80l-6 50q-8 3-14.5 7t-11.5 9l-46-20-40 68 40 30q-2 8-2 16t2 16l-40 30 40 68 46-20q5 5 11.5 9t14.5 7l6 50Zm40-100q-25 0-42.5-17.5T420-520q0-25 17.5-42.5T480-580q25 0 42.5 17.5T540-520q0 25-17.5 42.5T480-460Z" fill="#475569" />
</g>
<text x="244.0" y="558.0" font-size="14" fill="#1e293b" font-family="Inter, -apple-system, BlinkMacSystemFont, sans-serif" font-weight="500" dominant-baseline="middle">ML Pipeline</text>
<rect x="220.0" y="582.0" width="200" height="40" fill="#f8fafc" stroke="#cbd5e1" stroke-width="1.5" rx="6" ry="6" />
<rect x="220.0" y="582.0" width="200" height="40" fill="#e2e8f0" stroke="none" rx="6" ry="6" />
<rect x="220.0" y="616.0" width="200" height="6" fill="#e2e8f0" stroke="none" />
<path d="M220.0,622.0 L420.0,622.0" stroke="#cbd5e1" stroke-width="1" />
<g transform="translate(232.0, 612.0) scale(0.020833333333333332)">
<path d="M206-206q-41-48-63.5-107.5T120-440q0-150 105-255t255-105h8l-64-64 56-56 160 160-160 160-57-57 63-63h-6q-116 0-198 82t-82 198q0 51 16.5 96t46.5 81l-57 57Zm234-14q0-23-15.5-45.5t-34.5-47q-19-24.5-34.5-51T340-420q0-58 41-99t99-41q58 0 99 41t41 99q0 30-15.5 56.5t-34.5 51q-19 24.5-34.5 47T520-220h-80Zm0 100v-60h80v60h-80Zm314-86-57-57q30-36 46.5-81t16.5-96q0-66-27.5-122.5T657-657l57-57q58 50 92 120.5T840-440q0 67-22.5 126.5T754-206Z" fill="#475569" />
</g>
<text x="260.0" y="602.0" font-size="14" fill="#1e293b" font-family="Inter, -apple-system, BlinkMacSystemFont, sans-serif" font-weight="500" dominant-baseline="middle">Training</text>
<rect x="220.0" y="682.0" width="200" height="40" fill="#f8fafc" stroke="#cbd5e1" stroke-width="1.5" rx="6" ry="6" />
<rect x="220.0" y="682.0" width="200" height="40" fill="#e2e8f0" stroke="none" rx="6" ry="6" />
<rect x="220.0" y="716.0" width="200" height="6" fill="#e2e8f0" stroke="none" />
<path d="M220.0,722.0 L420.0,722.0" stroke="#cbd5e1" stroke-width="1" />
<g transform="translate(232.0, 712.0) scale(0.020833333333333332)">
<path d="M260-160q-91 0-155.5-63T40-377q0-78 47-139t123-78q25-92 100-149t170-57q117 0 198.5 81.5T760-520q69 8 114.5 59.5T920-340q0 75-52.5 127.5T740-160H520q-33 0-56.5-23.5T440-240v-206l-64 62-56-56 160-160 160 160-56 56-64-62v206h220q42 0 71-29t29-71q0-42-29-71t-71-29h-60v-80q0-83-58.5-141.5T480-720q-83 0-141.5 58.5T280-520h-20q-58 0-99 41t-41 99q0 58 41 99t99 41h100v80H260Zm220-280Z" fill="#475569" />
</g>
<text x="260.0" y="702.0" font-size="14" fill="#1e293b" font-family="Inter, -apple-system, BlinkMacSystemFont, sans-serif" font-weight="500" dominant-baseline="middle">Serving</text>
<rect x="596.0" y="538.0" width="232.0" height="196.0" fill="#f1f5f9" stroke="#94a3b8" stroke-width="1.5" rx="6" ry="6" />
<rect x="596.0" y="538.0" width="232.0" height="40" fill="#e2e8f0" stroke="none" rx="6" ry="6" />
<rect x="596.0" y="572.0" width="232.0" height="6" fill="#e2e8f0" stroke="none" />
<path d="M596.0,578.0 L828.0,578.0" stroke="#94a3b8" stroke-width="1" />
<g transform="translate(608.0, 568.0) scale(0.020833333333333332)">
<path d="M280-280h80v-200h-80v200Zm320 0h80v-400h-80v400Zm-160 0h80v-120h-80v120Zm0-200h80v-80h-80v80ZM200-120q-33 0-56.5-23.5T120-200v-560q0-33 23.5-56.5T200-840h560q33 0 56.5 23.5T840-760v560q0 33-23.5 56.5T760-120H200Zm0-80h560v-560H200v560Zm0-560v560-560Z" fill="#475569" />
</g>
<text x="636.0" y="558.0" font-size="14" fill="#1e293b" font-family="Inter, -apple-system, BlinkMacSystemFont, sans-serif" font-weight="500" dominant-baseline="middle">Outputs</text>
<rect x="612.0" y="582.0" width="200" height="40" fill="#f8fafc" stroke="#cbd5e1" stroke-width="1.5" rx="6" ry="6" />
<rect x="612.0" y="582.0" width="200" height="40" fill="#e2e8f0" stroke="none" rx="6" ry="6" />
<rect x="612.0" y="616.0" width="200" height="6" fill="#e2e8f0" stroke="none" />
<path d="M612.0,622.0 L812.0,622.0" stroke="#cbd5e1" stroke-width="1" />
<g transform="translate(624.0, 612.0) scale(0.020833333333333332)">
<path d="M520-600v-240h320v240H520ZM120-440v-400h320v400H120Zm400 320v-400h320v400H520Zm-400 0v-240h320v240H120Zm80-400h160v-240H200v240Zm400 320h160v-240H600v240Zm0-480h160v-80H600v80ZM200-200h160v-80H200v80Zm160-320Zm240-160Zm0 240ZM360-280Z" fill="#475569" />
</g>
<text x="652.0" y="602.0" font-size="14" fill="#1e293b" font-family="Inter, -apple-system, BlinkMacSystemFont, sans-serif" font-weight="500" dominant-baseline="middle">Dashboards</text>
<rect x="612.0" y="682.0" width="200" height="40" fill="#f8fafc" stroke="#cbd5e1" stroke-width="1.5" rx="6" ry="6" />
<rect x="612.0" y="682.0" width="200" height="40" fill="#e2e8f0" stroke="none" rx="6" ry="6" />
<rect x="612.0" y="716.0" width="200" height="6" fill="#e2e8f0" stroke="none" />
<path d="M612.0,722.0 L812.0,722.0" stroke="#cbd5e1" stroke-width="1" />
<g transform="translate(624.0, 712.0) scale(0.020833333333333332)">
<path d="M160-200v-80h80v-280q0-83 50-147.5T420-792v-28q0-25 17.5-42.5T480-880q25 0 42.5 17.5T540-820v28q80 20 130 84.5T720-560v280h80v80H160Zm320-300Zm0 420q-33 0-56.5-23.5T400-160h160q0 33-23.5 56.5T480-80ZM320-280h320v-280q0-66-47-113t-113-47q-66 0-113 47t-47 113v280Z" fill="#475569" />
</g>
<text x="652.0" y="702.0" font-size="14" fill="#1e293b" font-family="Inter, -apple-system, BlinkMacSystemFont, sans-serif" font-weight="500" dominant-baseline="middle">Alerts</text>
<path d="M156.0,124.0 L156.0,137.0 Q156.0,149.0,167.8716870838756,150.75015593092186 L293.3590821468936,169.24984406907814 Q305.2307692307692,171.0,305.2307692307692,183.0 L305.2307692307692,196.0" stroke="#64748b" stroke-width="1.5" fill="none" />
<path d="M305.2307692307692,196.0 L301.2307692307692,189.0717967697245 L309.2307692307692,189.0717967697245 L305.2307692307692,196.0" fill="#64748b" stroke="none" />
<path d="M516.0,124.0 L516.0,137.0 Q516.0,149.0,504.08863778522965,150.45583315958305 L347.91136221477035,169.54416684041695 Q336.0,171.0,336.0,183.0 L336.0,196.0" stroke="#64748b" stroke-width="1.5" fill="none" />
<path d="M336.0,196.0 L332.0,189.0717967697245 L340.0,189.0717967697245 L336.0,196.0" fill="#64748b" stroke="none" />
<path d="M876.0,124.0 L876.0,137.0 Q876.0,149.0,864.0111830409678,149.51794586862283 L378.7580477282629,170.48205413137717 Q366.7692307692308,171.0,366.7692307692308,183.0 L366.7692307692308,196.0" stroke="#64748b" stroke-width="1.5" fill="none" />
<path d="M366.7692307692308,196.0 L362.7692307692308,189.0717967697245 L370.7692307692308,189.0717967697245 L366.7692307692308,196.0" fill="#64748b" stroke="none" />
<path d="M436.0,235.0 L449.0,235.0 Q461.0,235.0,472.4939154226538,238.44817462679615 L559.5060845773462,264.5518253732039 Q571.0,268.0,583.0,268.0 L596.0,268.0" stroke="#64748b" stroke-width="1.5" fill="none" />
<path d="M596.0,268.0 L589.0717967697245,272.0 L589.0717967697245,264.0 L596.0,268.0" fill="#64748b" stroke="none" />
<rect x="489.0" y="242.5" width="54" height="18" fill="#ffffff" stroke="#64748b" stroke-width="1" rx="4" ry="4" />
<text x="516.0" y="251.5" font-size="11" fill="#64748b" font-family="JetBrains Mono, Consolas, monospace" text-anchor="middle" dominant-baseline="middle">stream</text>
<path d="M696.0,340.0 L696.0,353.0 Q696.0,365.0,684.018475761535,365.6656402354703 L527.981524238465,374.3343597645297 Q516.0,375.0,516.0,387.0 L516.0,400.0" stroke="#64748b" stroke-width="1.5" fill="none" />
<path d="M516.0,400.0 L512.0,393.0717967697245 L520.0,393.0717967697245 L516.0,400.0" fill="#64748b" stroke="none" />
<rect x="582.5" y="361.0" width="47" height="18" fill="#ffffff" stroke="#64748b" stroke-width="1" rx="4" ry="4" />
<text x="606.0" y="370.0" font-size="11" fill="#64748b" font-family="JetBrains Mono, Consolas, monospace" text-anchor="middle" dominant-baseline="middle">batch</text>
<path d="M516.0,478.0 L516.0,491.0 Q516.0,503.0,504.01558806612655,503.6114495884629 L331.98441193387345,512.388550411537 Q320.0,513.0,320.0,525.0 L320.0,538.0" stroke="#64748b" stroke-width="1.5" fill="none" />
<path d="M320.0,538.0 L316.0,531.0717967697245 L324.0,531.0717967697245 L320.0,538.0" fill="#64748b" stroke="none" />
<rect x="384.0" y="499.0" width="68" height="18" fill="#ffffff" stroke="#64748b" stroke-width="1" rx="4" ry="4" />
<text x="418.0" y="508.0" font-size="11" fill="#64748b" font-family="JetBrains Mono, Consolas, monospace" text-anchor="middle" dominant-baseline="middle">features</text>
<path d="M320.0,622.0 L320.0,682.0" stroke="#64748b" stroke-width="1.5" fill="none" />
<path d="M320.0,682.0 L316.0,675.0717967697245 L324.0,675.0717967697245 L320.0,682.0" fill="#64748b" stroke="none" />
<rect x="293.0" y="643.0" width="54" height="18" fill="#ffffff" stroke="#64748b" stroke-width="1" rx="4" ry="4" />
<text x="320.0" y="652.0" font-size="11" fill="#64748b" font-family="JetBrains Mono, Consolas, monospace" text-anchor="middle" dominant-baseline="middle">deploy</text>
<path d="M420.0,702.0 L433.0,702.0 Q445.0,702.0,454.8112676727174,695.0906565685088 L577.1887323272825,608.9093434314912 Q587.0,602.0,599.0,602.0 L612.0,602.0" stroke="#64748b" stroke-width="1.5" fill="none" />
<path d="M612.0,602.0 L605.0717967697245,606.0 L605.0717967697245,598.0 L612.0,602.0" fill="#64748b" stroke="none" />
<rect x="471.5" y="643.0" width="89" height="18" fill="#ffffff" stroke="#64748b" stroke-width="1" rx="4" ry="4" />
<text x="516.0" y="652.0" font-size="11" fill="#64748b" font-family="JetBrains Mono, Consolas, monospace" text-anchor="middle" dominant-baseline="middle">predictions</text>
<path d="M420.0,702.0 L575.0,702.0 Q587.0,702.0,599.0,702.0 L612.0,702.0" stroke="#64748b" stroke-width="1.5" fill="none" />
<path d="M612.0,702.0 L605.0717967697245,706.0 L605.0717967697245,698.0 L612.0,702.0" fill="#64748b" stroke="none" />
<rect x="478.5" y="693.0" width="75" height="18" fill="#ffffff" stroke="#64748b" stroke-width="1" rx="4" ry="4" />
<text x="516.0" y="702.0" font-size="11" fill="#64748b" font-family="JetBrains Mono, Consolas, monospace" text-anchor="middle" dominant-baseline="middle">anomalies</text>
</svg>