<?xml version="1.0" encoding="UTF-8"?>
<svg xmlns="http://www.w3.org/2000/svg" xmlns:xlink="http://www.w3.org/1999/xlink"
     width="1032.0" height="528.0" viewBox="0 0 1032.0 528.0">
<defs>
</defs>
<rect x="0" y="0" width="1032.0" height="528.0" fill="#ffffff" />
<rect x="40.0" y="244.0" width="200" height="40" fill="#f8fafc" stroke="#cbd5e1" stroke-width="1.5" rx="6" ry="6" />
<rect x="40.0" y="244.0" width="200" height="40" fill="#e2e8f0" stroke="none" rx="6" ry="6" />
<rect x="40.0" y="278.0" width="200" height="6" fill="#e2e8f0" stroke="none" />
<path d="M40.0,284.0 L240.0,284.0" stroke="#cbd5e1" stroke-width="1" />
<g transform="translate(52.0, 274.0) scale(0.020833333333333332)">
<path d="M480-480q-66 0-113-47t-47-113q0-66 47-113t113-47q66 0 113 47t47 113q0 66-47 113t-113 47ZM160-160v-112q0-34 17.5-62.5T224-378q62-31 126-46.5T480-440q66 0 130 15.5T736-378q29 15 46.5 43.5T800-272v112H160Zm80-80h480v-32q0-11-5.5-20T700-306q-54-27-109-40.5T480-360q-56 0-111 13.5T260-306q-9 5-14.5 14t-5.5 20v32Zm240-320q33 0 56.5-23.5T560-640q0-33-23.5-56.5T480-720q-33 0-56.5 23.5T400-640q0 33 23.5 56.5T480-560Zm0-80Zm0 400Z" fill="#475569" />
</g>
<text x="80.0" y="264.0" font-size="14" fill="#1e293b" font-family="Inter, -apple-system, BlinkMacSystemFont, sans-serif" font-weight="500" dominant-baseline="middle">User</text>
<rect x="400.0" y="40.0" width="232.0" height="448.0" fill="#f1f5f9" stroke="#94a3b8" stroke-width="1.5" rx="6" ry="6" />
<rect x="400.0" y="40.0" width="232.0" height="40" fill="#e2e8f0" stroke="none" rx="6" ry="6" />
<rect x="400.0" y="74.0" width="232.0" height="6" fill="#e2e8f0" stroke="none" />
<path d="M400.0,80.0 L632.0,80.0" stroke="#94a3b8" stroke-width="1" />
<g transform="translate(412.0, 70.0) scale(0.020833333333333332)">
<path d="M260-160q-91 0-155.5-63T40-377q0-78 47-139t123-78q25-92 100-149t170-57q117 0 198.5 81.5T760-520q69 8 114.5 59.5T920-340q0 75-52.5 127.5T740-160H260Zm0-80h480q42 0 71-29t29-71q0-42-29-71t-71-29h-60v-80q0-83-58.5-141.5T480-720q-83 0-141.5 58.5T280-520h-20q-58 0-99 41t-41 99q0 58 41 99t99 41Zm220-240Z" fill="#475569" />
</g>
<text x="440.0" y="60.0" font-size="14" fill="#1e293b" font-family="Inter, -apple-system, BlinkMacSystemFont, sans-serif" font-weight="500" dominant-baseline="middle">Our WebApp</text>
<text x="412.0" y="99.0" font-size="11" fill="#64748b" font-family="Inter, -apple-system, BlinkMacSystemFont, sans-serif" dominant-baseline="middle">Layered architecture style.</text>
<path d="M400.0,118.0 L632.0,118.0" stroke="#94a3b8" stroke-width="0.5" stroke-dasharray="3,2" />
<rect x="416.0" y="122.0" width="200" height="78" fill="#f8fafc" stroke="#cbd5e1" stroke-width="1.5" rx="6" ry="6" />
<rect x="416.0" y="122.0" width="200" height="40" fill="#e2e8f0" stroke="none" rx="6" ry="6" />
<rect x="416.0" y="156.0" width="200" height="6" fill="#e2e8f0" stroke="none" />
<path d="M416.0,162.0 L616.0,162.0" stroke="#cbd5e1" stroke-width="1" />
<g transform="translate(428.0, 152.0) scale(0.020833333333333332)">
<path d="M160-160q-33 0-56.5-23.5T80-240v-480q0-33 23.5-56.5T160-800h640q33 0 56.5 23.5T880-720v480q0 33-23.5 56.5T800-160H160Zm0-80h420v-140H160v140Zm500 0h140v-360H660v360ZM160-460h420v-140H160v140Z" fill="#475569" />
</g>
<text x="456.0" y="142.0" font-size="14" fill="#1e293b" font-family="Inter, -apple-system, BlinkMacSystemFont, sans-serif" font-weight="500" dominant-baseline="middle">Presentation Layer</text>
<text x="428.0" y="181.0" font-size="11" fill="#64748b" font-family="Inter, -apple-system, BlinkMacSystemFont, sans-serif" dominant-baseline="middle">User interface components</text>
<rect x="416.0" y="260.0" width="200" height="78" fill="#f8fafc" stroke="#cbd5e1" stroke-width="1.5" rx="6" ry="6" />
<rect x="416.0" y="260.0" width="200" height="40" fill="#e2e8f0" stroke="none" rx="6" ry="6" />
<rect x="416.0" y="294.0" width="200" height="6" fill="#e2e8f0" stroke="none" />
<path d="M416.0,300.0 L616.0,300.0" stroke="#cbd5e1" stroke-width="1" />
<g transform="translate(428.0, 290.0) scale(0.020833333333333332)">
<path d="M600-120v-120H440v-400h-80v120H80v-320h280v120h240v-120h280v320H600v-120h-80v320h80v-120h280v320H600ZM160-760v160-160Zm520 400v160-160Zm0-400v160-160Zm0 160h120v-160H680v160Zm0 400h120v-160H680v160ZM160-600h120v-160H160v160Z" fill="#475569" />
</g>
<text x="456.0" y="280.0" font-size="14" fill="#1e293b" font-family="Inter, -apple-system, BlinkMacSystemFont, sans-serif" font-weight="500" dominant-baseline="middle">Business Layer</text>
<text x="428.0" y="319.0" font-size="11" fill="#64748b" font-family="Inter, -apple-system, BlinkMacSystemFont, sans-serif" dominant-baseline="middle">Business logic and rules</text>
<rect x="416.0" y="398.0" width="200" height="78" fill="#f8fafc" stroke="#cbd5e1" stroke-width="1.5" rx="6" ry="6" />
<rect x="416.0" y="398.0" width="200" height="40" fill="#e2e8f0" stroke="none" rx="6" ry="6" />
<rect x="416.0" y="432.0" width="200" height="6" fill="#e2e8f0" stroke="none" />
<path d="M416.0,438.0 L616.0,438.0" stroke="#cbd5e1" stroke-width="1" />
<g transform="translate(428.0, 428.0) scale(0.020833333333333332)">
<path d="M120-160v-160h720v160H120Zm80-40h80v-80h-80v80Zm-80-440v-160h720v160H120Zm80-40h80v-80h-80v80Zm-80 280v-160h720v160H120Zm80-40h80v-80h-80v80Z" fill="#475569" />
</g>
<text x="456.0" y="418.0" font-size="14" fill="#1e293b" font-family="Inter, -apple-system, BlinkMacSystemFont, sans-serif" font-weight="500" dominant-baseline="middle">Persistence Layer</text>
<text x="428.0" y="457.0" font-size="11" fill="#64748b" font-family="Inter, -apple-system, BlinkMacSystemFont, sans-serif" dominant-baseline="middle">Data access and ORM</text>
<rect x="792.0" y="222.0" width="200" height="84" fill="#f8fafc" stroke="#cbd5e1" stroke-width="1.5" rx="6" ry="6" />
<rect x="792.0" y="222.0" width="200" height="40" fill="#e2e8f0" stroke="none" rx="6" ry="6" />
<rect x="792.0" y="256.0" width="200" height="6" fill="#e2e8f0" stroke="none" />
<path d="M792.0,262.0 L992.0,262.0" stroke="#cbd5e1" stroke-width="1" />
<g transform="translate(804.0, 252.0) scale(0.020833333333333332)">
<path d="M480-120q-151 0-255.5-46.5T120-280v-400q0-66 105.5-113T480-840q149 0 254.5 47T840-680v400q0 67-104.5 113.5T480-120Zm0-479q89 0 179-25.5T760-679q-11-29-100.5-55T480-760q-91 0-178.5 25.5T200-679q14 30 101.5 55T480-599Zm0 199q42 0 81-4t74.5-11.5q35.5-7.5 67-18.5t57.5-25v-120q-26 14-57.5 25t-67 18.5Q600-528 561-524t-81 4q-42 0-82-4t-75.5-11.5Q287-543 256-554t-56-25v120q25 14 56 25t66.5 18.5Q358-408 398-404t82 4Zm0 200q46 0 93.5-7t87.5-18.5q40-11.5 67-26t32-29.5v-98q-26 14-57.5 25t-67 18.5Q600-328 561-324t-81 4q-42 0-82-4t-75.5-11.5Q287-343 256-354t-56-25v99q5 15 31.5 29t66.5 25.5q40 11.5 88 18.5t94 7Z" fill="#475569" />
</g>
<text x="832.0" y="242.0" font-size="14" fill="#1e293b" font-family="Inter, -apple-system, BlinkMacSystemFont, sans-serif" font-weight="500" dominant-baseline="middle">Database Layer</text>
<text x="804.0" y="273.0" font-size="11" fill="#64748b" font-family="JetBrains Mono, Consolas, monospace" dominant-baseline="middle">• PostgreSQL</text>
<text x="804.0" y="295.0" font-size="11" fill="#64748b" font-family="JetBrains Mono, Consolas, monospace" dominant-baseline="middle">• Redis Cache</text>
<path d="M240.0,264.0 L363.0,264.0 Q375.0,264.0,387.0,264.0 L400.0,264.0" stroke="#64748b" stroke-width="1.5" fill="none" />
<path d="M400.0,264.0 L393.0717967697245,268.0 L393.0717967697245,260.0 L400.0,264.0" fill="#64748b" stroke="none" />
<path d="M616.0,437.0 L629.0,437.0 Q641.0,437.0,648.0647264017157,427.30001851193 L759.9352735982843,273.69998148807 Q767.0,264.0,779.0,264.0 L792.0,264.0" stroke="#64748b" stroke-width="1.5" fill="none" />
<path d="M792.0,264.0 L785.0717967697245,268.0 L785.0717967697245,260.0 L792.0,264.0" fill="#64748b" stroke="none" />
<rect x="663.0" y="341.5" width="82" height="18" fill="#ffffff" stroke="#64748b" stroke-width="1" rx="4" ry="4" />
<text x="704.0" y="350.5" font-size="11" fill="#64748b" font-family="JetBrains Mono, Consolas, monospace" text-anchor="middle" dominant-baseline="middle">read/write</text>
</svg>